:SAMPLES-PER-SECOND 30
:FULLY-SPECIFIED
:DEGREES
82
root  4.86065 39.7068 -1.98571 1.78415 -45.3871 0.318593
RightUpLeg  -16.2848 -8.75632 2.65276
RightLeg  21.9688 -17.9556 -7.8811
RightFoot  -5.86769 -0.394899 7.6166
RightToes  5.82063e-011 0 -3.6325e-017
Spine  20.7149 3.21838 3.42616
Spine1  -0.458286 5.02853 -5.47694
HEad  -26.6036 -27.2448 8.70203
LeftShoulder1  1.64854 -6.80078 -8.52337
LeftArm  48.2388 -53.9329 -113.905
LeftForeArm  100.648 -80.1453 -94.8297
LeftHand  -0.484131 -0.889766 9.06612
RightShoulder  1.58246 7.59878 6.5995
RightArm  0.230346 59.888 71.6954
RightForeArm  51.839 -7.33733 12.4948
RightHand  -0.0163038 -5.38649 -15.2479
LeftUpLeg  -14.8663 -5.46836 -2.6535
LeftLeg  14.4864 -4.88678 0.542147
LeftFoot  -1.1151 0.356411 -3.90799
LeftToes  -1.1369e-010 2.7689e-011 -1.90827e-011
83
root  4.67373 39.9628 -2.21029 3.37563 -43.2407 0.742428
RightUpLeg  -15.4138 -4.42609 2.99083
RightLeg  16.0654 -25.7089 -7.97081
RightFoot  -2.34537 -0.291405 3.3621
RightToes  5.82063e-011 0 -3.6325e-017
Spine  20.9267 3.25465 4.42826
Spine1  -3.63227 5.35206 -7.41125
HEad  -24.1127 -28.9488 8.40725
LeftShoulder1  1.29987 -6.05896 -5.84244
LeftArm  55.074 -56.421 -123.111
LeftForeArm  100.039 -80.1289 -94.6023
LeftHand  -0.681334 -1.30834 11.9593
RightShoulder  1.18359 7.4916 2.64121
RightArm  1.64894 67.2767 73.4652
RightForeArm  49.31 -7.24083 11.2005
RightHand  0.0362802 -5.86611 -13.3778
LeftUpLeg  -14.5846 -2.43388 -3.30455
LeftLeg  9.59239 -10.1491 0.975019
LeftFoot  0.994801 0.565171 -5.2989
LeftToes  -1.1369e-010 2.7689e-011 -1.90827e-011
84
root  4.58262 40.0701 -2.42406 4.49687 -41.2188 1.59089
RightUpLeg  -15.8885 -1.43587 2.36094
RightLeg  13.9452 -31.3926 -8.33934
RightFoot  -1.5813 -0.21464 2.37528
RightToes  5.82063e-011 0 -3.6325e-017
Spine  22.0161 3.03624 5.93658
Spine1  -7.51674 5.47939 -10.4554
HEad  -21.9471 -30.7577 8.23943
LeftShoulder1  1.05987 -5.41059 -3.922
LeftArm  61.3465 -58.2869 -130.736
LeftForeArm  98.9485 -80.2248 -91.9779
LeftHand  -0.870054 -1.83326 14.1481
RightShoulder  0.77603 6.88755 -1.11983
RightArm  1.81807 74.6549 72.6532
RightForeArm  45.26 -7.1471 9.95872
RightHand  0.0854059 -6.41819 -11.9825
LeftUpLeg  -15.0023 -2.14159 -3.93726
LeftLeg  6.23124 -12.4305 1.43364
LeftFoot  2.73896 0.6791 -5.63763
LeftToes  -1.1369e-010 2.7689e-011 -1.90827e-011
85
root  4.60896 40.0231 -2.70709 5.98732 -39.0655 2.19846
RightUpLeg  -18.3946 -1.54352 1.93775
RightLeg  15.0186 -32.9133 -9.36259
RightFoot  -2.12809 -0.313399 3.70998
RightToes  5.82063e-011 0 -3.6325e-017
Spine  24.0183 2.36196 8.09078
Spine1  -12.1112 5.0788 -14.1755
HEad  -21.3369 -32.2841 8.48745
LeftShoulder1  0.864522 -4.81721 -2.20901
LeftArm  66.9484 -59.5389 -137.324
LeftForeArm  99.2748 -80.3384 -89.9911
LeftHand  -1.0199 -2.15176 15.852
RightShoulder  0.436137 5.78356 -4.30148
RightArm  -5.55119 80.9339 63.0211
RightForeArm  40.7516 -7.09183 8.96111
RightHand  0.0770424 -6.3839 -11.519
LeftUpLeg  -17.2443 -3.81955 -4.34777
LeftLeg  5.7159 -13.136 1.93335
LeftFoot  3.61212 0.723835 -5.68144
LeftToes  -1.1369e-010 2.7689e-011 -1.90827e-011
86
root  4.69063 39.7696 -3.0734 8.10511 -36.8753 2.37348
RightUpLeg  -22.8161 -2.65021 2.13
RightLeg  18.7196 -33.086 -11.5831
RightFoot  -2.85935 -0.352649 4.47502
RightToes  5.82063e-011 0 -3.6325e-017
Spine  26.3621 1.42445 10.3615
Spine1  -16.5714 4.26953 -17.6915
HEad  -22.6539 -33.2324 9.07901
LeftShoulder1  0.650473 -4.04687 -0.197497
LeftArm  72.1812 -60.2154 -143.783
LeftForeArm  102.498 -80.3736 -92.2647
LeftHand  -1.10765 -1.83482 17.9183
RightShoulder  0.188666 4.31524 -6.91594
RightArm  -43.633 85.4585 21.832
RightForeArm  36.3093 -7.02854 8.0272
RightHand  -0.0010866 -5.56958 -11.7215
LeftUpLeg  -22.0423 -8.1263 -3.40291
LeftLeg  9.07544 -11.559 1.80975
LeftFoot  2.7718 0.719993 -5.95558
LeftToes  -1.1369e-010 2.7689e-011 -1.90827e-011
87
root  4.77494 39.29 -3.48479 9.6405 -35.0008 2.65354
RightUpLeg  -28.0244 -3.62388 2.54891
RightLeg  25.2269 -32.6697 -15.6908
RightFoot  -4.25243 -0.321437 4.72981
RightToes  5.82063e-011 0 -3.6325e-017
Spine  29.2527 0.764728 11.7148
Spine1  -20.2831 3.58449 -19.9171
HEad  -25.2044 -33.6848 9.548
LeftShoulder1  0.462313 -3.30111 1.88505
LeftArm  76.4639 -60.3662 -149.614
LeftForeArm  110.036 -80.2086 -100.223
LeftHand  -1.12487 -1.08271 20.2104
RightShoulder  0.0265192 2.89861 -9.24218
RightArm  -105.254 83.132 -43.266
RightForeArm  31.6501 -6.90739 6.82583
RightHand  -0.0945904 -4.64326 -12.3275
LeftUpLeg  -28.361 -16.1348 0.0646212
LeftLeg  15.3712 -5.29367 0.486529
LeftFoot  0.449331 0.598855 -5.80785
LeftToes  -1.1369e-010 2.7689e-011 -1.90827e-011
